<svg width="263" height="177" viewBox="0 0 263 177" fill="none" xmlns="http://www.w3.org/2000/svg">
<path fill-rule="evenodd" clip-rule="evenodd" d="M42.955 1.8479C32.1 4.1389 23.834 8.0509 17.61 13.8419C11.365 19.6529 9.05 24.6699 9.022 32.4579C8.994 40.2999 12.096 46.6469 19.807 54.5219C27.328 62.2009 36.085 68.1319 60.893 82.3499C85.273 96.3209 93.927 102.091 100.204 108.558C113.818 122.585 109.276 137.217 89.181 144.063C79.748 147.277 61.074 147.255 49.513 144.017C31.398 138.943 19.443 129.853 12.98 116.236C9.657 109.236 9.474 109.052 5.197 108.411C2.788 108.05 0.581001 107.989 0.294001 108.277C-0.299999 108.87 4.848 147.849 5.702 149.232C6.012 149.732 8.746 149.809 11.879 149.405C21.276 148.192 26.007 148.524 38 151.242C60.161 156.263 85.613 157.067 102.265 153.273C108.525 151.846 114.282 151.697 145 152.166C178.162 152.672 180.88 152.581 186.268 150.789C191.567 149.027 192.279 148.997 195.033 150.421C198.717 152.326 200.773 152.415 234.813 152.131L262.127 151.904L261.813 148.727C261.518 145.73 261.183 145.487 255.895 144.437C247.705 142.81 245.387 140.936 244.091 134.891C242.586 127.875 242.592 27.4079 244.098 21.4289C245.601 15.4599 248.563 12.9999 255.931 11.5999C261.962 10.4539 262.085 10.3659 261.796 7.4169L261.5 4.4039H231H200.5V7.3759C200.5 10.1189 200.847 10.4079 205 11.1129C212.337 12.3589 214.953 13.8959 217.229 18.2969C219.214 22.1349 219.357 23.9739 219.426 46.4039L219.5 70.4039L181.66 70.6659L143.821 70.9279L144.173 46.1659C144.613 15.2599 145.143 13.7989 156.776 11.4689C162.193 10.3839 162.5 10.1639 162.5 7.3629V4.4039L128 3.8079C102.398 3.3659 91.179 2.7869 84.5 1.5619C72.56 -0.627102 54.083 -0.500102 42.955 1.8479ZM60.326 8.8789C44.607 12.2469 37.787 23.8699 44.926 35.1269C49.935 43.0249 58.506 48.8409 91 66.3889C98.975 70.6949 108.742 76.3439 112.705 78.9399C116.667 81.5369 120.155 83.4159 120.455 83.1159C120.755 82.8159 121 70.6349 121 56.0469V29.5239L115.28 24.2429C109.13 18.5639 100.357 13.7639 90.597 10.7369C83.616 8.5719 66.627 7.5299 60.326 8.8789ZM144.679 82.5589C144.305 82.9319 144 93.6169 144 106.303V129.368L146.512 125.671C147.894 123.638 151.157 120.753 153.762 119.261C156.368 117.769 158.636 116.455 158.801 116.341C158.967 116.228 157.729 113.97 156.051 111.324C149.679 101.275 153.246 91.6319 164.553 88.3459C176.629 84.8349 186.987 90.9409 186.996 101.577C187.001 106.723 183.858 110.802 176.769 114.851L171.814 117.681L178.938 125.765C185.52 133.234 191.743 138.904 193.359 138.904C194.908 138.904 197.993 132.123 197.996 128.71C198.002 123.52 194.471 119.497 190.735 120.434C189.231 120.812 188 121.763 188 122.548C188 123.638 188.447 123.735 189.895 122.96C191.3 122.208 192.105 122.325 193.007 123.412C194.777 125.545 193.574 127.619 190.126 128.376C184.332 129.649 180.325 125.139 182.276 119.542C183.463 116.137 188.989 113.372 197.7 111.824C205.554 110.427 207 109.946 207 108.728C207 108.101 205.945 107.952 204.345 108.354C201.216 109.139 199.667 107.396 201.105 104.708C202.454 102.188 208.402 102.306 211 104.904C213.035 106.939 213.497 109.444 212.377 112.365C211.685 114.167 204.993 117.904 202.457 117.904C201.564 117.904 201.006 118.242 201.218 118.654C206.669 129.29 206.909 133.482 202.375 138.87C201.069 140.422 200 142.16 200 142.731C200 145.751 210.217 145.095 214.398 141.805C218.914 138.254 219.489 134.368 219.495 107.404L219.5 82.4039L182.429 82.1419C162.039 81.9979 145.052 82.1849 144.679 82.5589ZM163.455 95.3589C160.245 98.5679 160.357 101.498 163.902 107.089C167.578 112.885 168.322 113.308 171.721 111.54C179.311 107.591 181.683 100.389 177.026 95.4309C173.713 91.9049 166.945 91.8679 163.455 95.3589ZM159.133 123.446C155.514 126.491 153.576 131.829 154.432 136.393C155.637 142.814 164.207 147.96 173.5 147.842C177.606 147.79 184.5 145.881 184.5 144.797C184.5 144.462 179.467 138.954 173.316 132.555L162.132 120.922L159.133 123.446ZM11.641 160.676C11.367 161.119 11.189 164.502 11.245 168.193C11.319 173.051 11.713 174.904 12.673 174.904C13.403 174.904 14 173.926 14 172.73V170.555L16.496 172.9C20.243 176.42 20.85 174.376 17.182 170.591C14.977 168.317 14 166.343 14 164.165C14 161.094 12.632 159.072 11.641 160.676ZM23.543 160.835C23.226 161.347 23.425 162.048 23.984 162.394C24.543 162.739 25 162.32 25 161.463C25 159.706 24.4 159.448 23.543 160.835ZM35 162.354C35 163.702 34.276 165.21 33.391 165.705C31.911 166.533 31.911 166.656 33.391 167.224C34.446 167.628 35 169.047 35 171.341C35 173.826 35.382 174.695 36.318 174.336C37.24 173.982 37.584 171.964 37.464 167.617C37.253 159.997 37.236 159.904 36 159.904C35.45 159.904 35 161.007 35 162.354ZM146 167.321C146 173.49 146.288 174.904 147.544 174.904C148.819 174.904 149.037 173.658 148.794 167.734C148.604 163.109 148.056 160.417 147.25 160.151C146.324 159.844 146 161.7 146 167.321ZM152.47 167.061C153.054 176.925 155.195 177.636 154.796 167.833C154.607 163.191 154.055 160.417 153.269 160.157C152.343 159.851 152.145 161.566 152.47 167.061ZM1.25 161.566C-1.079 162.506 -0.0160005 165.79 3.48 168.456C6.427 170.705 6.798 171.412 5.904 173.083C4.95 174.866 5.048 174.949 6.924 173.945C9.877 172.364 9.506 170.413 5.569 166.83C3.608 165.046 2.368 163.107 2.676 162.306C3.249 160.814 3.19 160.783 1.25 161.566ZM6 161.845C6 162.363 6.45 163.064 7 163.404C7.55 163.744 8 163.32 8 162.463C8 161.606 7.55 160.904 7 160.904C6.45 160.904 6 161.327 6 161.845ZM119.5 167.929C119.5 173.64 119.781 174.898 121 174.655C121.933 174.468 122.378 173.49 122.177 172.07C121.999 170.813 122.359 169.177 122.976 168.433C123.805 167.434 123.803 166.9 122.968 166.384C122.335 165.993 122.102 164.634 122.438 163.295C122.901 161.449 122.635 160.904 121.269 160.904C119.745 160.904 119.5 161.876 119.5 167.929ZM129.908 161.404C129.857 161.679 129.774 164.716 129.724 168.153C129.655 172.838 129.99 174.471 131.066 174.678C132.202 174.897 132.5 173.492 132.5 167.929C132.5 162.976 132.131 160.904 131.25 160.904C130.563 160.904 129.959 161.129 129.908 161.404ZM168.268 162.116C166.85 162.801 165.795 164.481 165.374 166.726C164.805 169.758 165.093 170.588 167.411 172.581C168.896 173.859 171.099 174.897 172.306 174.889C174.414 174.875 174.403 174.825 172.017 173.618C168.363 171.77 167.14 167.467 169.232 163.823C170.153 162.217 170.815 160.934 170.703 160.972C170.592 161.009 169.496 161.524 168.268 162.116ZM176.188 161.967C176.428 162.688 177.216 163.476 177.938 163.717C178.688 163.967 179.063 163.592 178.813 162.842C178.572 162.12 177.784 161.332 177.063 161.092C176.313 160.842 175.938 161.217 176.188 161.967ZM211 167.904C211 174.842 211.024 174.904 213.7 174.904C215.8 174.904 216.133 174.637 215.2 173.704C214.54 173.044 214 169.894 214 166.704C214 162.215 213.661 160.904 212.5 160.904C211.31 160.904 211 162.348 211 167.904ZM230 167.904C230 173.46 230.31 174.904 231.5 174.904C232.69 174.904 233 173.46 233 167.904C233 162.348 232.69 160.904 231.5 160.904C230.31 160.904 230 162.348 230 167.904ZM236.488 162.866C236.831 163.945 236.62 165.745 236.02 166.866C234.712 169.312 236.168 169.594 238.429 167.333C240.308 165.454 240.43 163.734 238.8 162.104C236.975 160.279 235.791 160.669 236.488 162.866ZM248.343 162.452C248.004 163.336 248.512 164.558 249.527 165.3C250.505 166.015 251.004 167.088 250.636 167.683C250.268 168.279 250.452 169.066 251.045 169.432C251.638 169.798 252.534 171.18 253.037 172.501C253.539 173.823 254.412 174.904 254.975 174.904C256.272 174.904 256.298 172.407 255.025 170.14C254.489 169.185 253.387 166.717 252.576 164.654C251.029 160.719 249.345 159.842 248.343 162.452ZM100.71 163.904C101.003 165.022 100.741 165.904 100.117 165.904C99.502 165.904 99 165.191 99 164.321C99 163.45 98.438 162.934 97.75 163.174C95.697 163.892 96.878 166.776 100.94 170.962C105.235 175.387 107.799 176.294 105.758 172.666C105.066 171.435 103.691 169.82 102.702 169.076C101.301 168.022 101.16 167.416 102.064 166.327C103.303 164.834 102.681 161.904 101.125 161.904C100.609 161.904 100.423 162.804 100.71 163.904ZM16.5 166.904C16.16 167.454 16.332 167.904 16.882 167.904C17.432 167.904 18.16 167.454 18.5 166.904C18.84 166.354 18.668 165.904 18.118 165.904C17.568 165.904 16.84 166.354 16.5 166.904ZM22.885 166.352C22.639 166.598 22.611 168.623 22.824 170.852C23.09 173.641 23.684 174.904 24.73 174.904C25.899 174.904 26.106 174.182 25.625 171.779C25.281 170.06 25 168.035 25 167.279C25 165.952 23.808 165.429 22.885 166.352ZM40.777 166.601C39.872 168.387 40.583 174.265 41.75 174.654C42.595 174.936 43 173.91 43 171.487C43 169.517 43.034 167.578 43.075 167.179C43.183 166.133 41.259 165.649 40.777 166.601ZM46.475 170.062C46.65 172.412 47.318 174.51 47.959 174.724C48.756 174.989 49.026 173.759 48.813 170.836C48.641 168.484 47.973 166.386 47.328 166.174C46.523 165.91 46.256 167.129 46.475 170.062ZM52.613 170.062C53.379 175.06 53.687 175.623 54.95 174.337C56.165 173.1 54.791 166.668 53.198 166.137C52.26 165.824 52.113 166.806 52.613 170.062ZM59.2 167.104C56.394 169.91 58.551 175.009 62.45 174.788C64.068 174.696 64.141 174.578 62.797 174.224C60.738 173.682 59.632 170.638 60.5 167.904C61.229 165.607 60.899 165.405 59.2 167.104ZM64.714 169.713C65.404 174.19 65.261 173.979 66.914 172.957C68.592 171.92 67.641 167.364 65.581 166.573C64.435 166.134 64.26 166.769 64.714 169.713ZM70.226 170.139C70.592 175.38 73 176.551 73 171.487C73 168.969 73.446 167.904 74.5 167.904C77.414 167.904 75.957 166.207 72.969 166.122C70.029 166.039 69.947 166.158 70.226 170.139ZM106 166.963C106 167.545 106.45 167.744 107 167.404C107.55 167.064 108 166.588 108 166.345C108 166.102 107.55 165.904 107 165.904C106.45 165.904 106 166.381 106 166.963ZM139.726 166.983C141.165 168.477 139.666 170.904 137.304 170.904C135.534 170.904 135.964 174.06 137.818 174.677C138.639 174.951 139.016 174.455 138.818 173.364C138.643 172.4 139.063 171.415 139.75 171.174C140.49 170.916 141 171.588 141 172.821C141 173.967 141.476 174.904 142.057 174.904C142.683 174.904 142.989 173.171 142.807 170.663C142.567 167.339 142.067 166.344 140.5 166.066C138.902 165.781 138.746 165.966 139.726 166.983ZM182.75 166.984C180.4 168.353 180.513 172.573 182.934 173.869C185.756 175.379 187.722 175.153 185.554 173.567C184.232 172.6 183.854 171.353 184.189 169.067C184.445 167.327 184.619 165.918 184.577 165.934C184.535 165.951 183.713 166.423 182.75 166.984ZM187.5 168.263C188.378 169.603 188.751 171.39 188.363 172.4C187.878 173.665 188.088 174.043 189.091 173.712C192.297 172.655 190.796 165.904 187.355 165.904C186.195 165.904 186.22 166.31 187.5 168.263ZM28.407 169.417C27.704 172.221 29.373 174.904 31.822 174.904C33.049 174.904 33.133 174.637 32.2 173.704C31.54 173.044 31 171.244 31 169.704C31 166.222 29.258 166.029 28.407 169.417ZM77.667 167.571C76.58 168.657 76.906 172.41 78.2 173.704C78.86 174.364 80.28 174.904 81.355 174.904C83.186 174.904 83.205 174.788 81.655 173.075C80.745 172.069 80 170.269 80 169.075C80 166.934 78.968 166.269 77.667 167.571ZM82.229 168.092C82.847 169.946 85 170.253 85 168.487C85 167.617 84.287 166.904 83.417 166.904C82.546 166.904 82.011 167.438 82.229 168.092ZM245.543 169.822C243.758 173.273 243.584 174.904 245 174.904C245.55 174.904 246 173.941 246 172.764C246 171.587 246.743 170.081 247.651 169.417C248.768 168.6 248.944 167.987 248.194 167.524C247.554 167.128 246.433 168.099 245.543 169.822ZM94.718 170.154C93.975 172.227 95.932 174.904 98.19 174.904C100.18 174.904 100.209 174.792 98.655 173.075C97.745 172.069 97 170.719 97 170.075C97 168.514 95.285 168.574 94.718 170.154ZM0 173.282C0 174.279 0.835 174.904 2.167 174.904C3.358 174.904 4.146 174.777 3.917 174.621C3.688 174.465 2.712 173.735 1.75 172.999C0.252 171.852 0 171.893 0 173.282ZM176.667 172.571C175.452 173.785 175.976 174.851 177.5 174.266C178.325 173.949 179 173.288 179 172.797C179 171.749 177.622 171.615 176.667 172.571ZM199.559 172.809C199.192 173.403 199.336 174.679 199.879 175.646C200.815 177.313 200.902 177.31 201.566 175.587C202.371 173.495 200.627 171.08 199.559 172.809ZM223.553 172.819C223.231 173.34 223.394 174.029 223.915 174.351C224.436 174.673 225.125 174.51 225.447 173.989C225.769 173.468 225.606 172.779 225.085 172.457C224.564 172.135 223.875 172.298 223.553 172.819ZM238 173.404C238 174.229 238.45 174.904 239 174.904C239.55 174.904 240 174.229 240 173.404C240 172.579 239.55 171.904 239 171.904C238.45 171.904 238 172.579 238 173.404ZM260 173.345C260 174.202 260.45 174.904 261 174.904C261.55 174.904 262 174.481 262 173.963C262 173.445 261.55 172.744 261 172.404C260.45 172.064 260 172.488 260 173.345ZM193 173.904C193 174.454 193.45 174.904 194 174.904C194.55 174.904 195 174.454 195 173.904C195 173.354 194.55 172.904 194 172.904C193.45 172.904 193 173.354 193 173.904ZM218 173.963C218 174.545 218.45 174.744 219 174.404C219.55 174.064 220 173.588 220 173.345C220 173.102 219.55 172.904 219 172.904C218.45 172.904 218 173.381 218 173.963Z" fill="black"/>
</svg>
